<mxfile host="app.diagrams.net" modified="2021-10-20T08:57:15.797Z" agent="5.0 (Windows NT 10.0; Win64; x64) AppleWebKit/537.36 (KHTML, like Gecko) Chrome/94.0.4606.81 Safari/537.36" etag="KQ8AlK1HNaiGndSlwRu9" version="15.5.5" type="github">
  <diagram id="B7mAadQ0fJc6xrl1k4vH" name="Page-1">
    <mxGraphModel dx="782" dy="1064" grid="1" gridSize="10" guides="1" tooltips="1" connect="1" arrows="1" fold="1" page="1" pageScale="1" pageWidth="827" pageHeight="1169" math="0" shadow="0">
      <root>
        <mxCell id="0" />
        <mxCell id="1" parent="0" />
        <mxCell id="HowVhOD-njJGQSaQwk-d-30" style="edgeStyle=orthogonalEdgeStyle;rounded=0;orthogonalLoop=1;jettySize=auto;html=1;exitX=1;exitY=0.5;exitDx=0;exitDy=0;" edge="1" parent="1" source="HowVhOD-njJGQSaQwk-d-1" target="HowVhOD-njJGQSaQwk-d-31">
          <mxGeometry relative="1" as="geometry">
            <mxPoint x="550" y="115" as="targetPoint" />
          </mxGeometry>
        </mxCell>
        <mxCell id="HowVhOD-njJGQSaQwk-d-1" value="플랜트 O&amp;amp;M 제품 및 솔루션 현황&lt;br&gt;(제품들은 주로 어떤 일을 하는지)&lt;br&gt;(서비스의 메커니즘)&lt;br&gt;10/25" style="rounded=0;whiteSpace=wrap;html=1;" vertex="1" parent="1">
          <mxGeometry x="110" y="80" width="190" height="70" as="geometry" />
        </mxCell>
        <mxCell id="HowVhOD-njJGQSaQwk-d-5" value="Vertical Tree Layout" style="swimlane;startSize=20;horizontal=1;childLayout=treeLayout;horizontalTree=0;resizable=0;containerType=tree;" vertex="1" parent="1">
          <mxGeometry x="50" y="780" width="280" height="190" as="geometry" />
        </mxCell>
        <mxCell id="HowVhOD-njJGQSaQwk-d-6" value="Root" style="whiteSpace=wrap;html=1;" vertex="1" parent="HowVhOD-njJGQSaQwk-d-5">
          <mxGeometry x="90" y="40" width="100" height="40" as="geometry" />
        </mxCell>
        <mxCell id="HowVhOD-njJGQSaQwk-d-7" value="Child 1" style="whiteSpace=wrap;html=1;" vertex="1" parent="HowVhOD-njJGQSaQwk-d-5">
          <mxGeometry x="20" y="130" width="100" height="40" as="geometry" />
        </mxCell>
        <mxCell id="HowVhOD-njJGQSaQwk-d-8" value="" style="edgeStyle=elbowEdgeStyle;elbow=vertical;html=1;rounded=0;" edge="1" parent="HowVhOD-njJGQSaQwk-d-5" source="HowVhOD-njJGQSaQwk-d-6" target="HowVhOD-njJGQSaQwk-d-7">
          <mxGeometry relative="1" as="geometry" />
        </mxCell>
        <mxCell id="HowVhOD-njJGQSaQwk-d-9" value="Child 2" style="whiteSpace=wrap;html=1;" vertex="1" parent="HowVhOD-njJGQSaQwk-d-5">
          <mxGeometry x="160" y="130" width="100" height="40" as="geometry" />
        </mxCell>
        <mxCell id="HowVhOD-njJGQSaQwk-d-10" value="" style="edgeStyle=elbowEdgeStyle;elbow=vertical;html=1;rounded=0;" edge="1" parent="HowVhOD-njJGQSaQwk-d-5" source="HowVhOD-njJGQSaQwk-d-6" target="HowVhOD-njJGQSaQwk-d-9">
          <mxGeometry relative="1" as="geometry" />
        </mxCell>
        <mxCell id="HowVhOD-njJGQSaQwk-d-15" style="edgeStyle=orthogonalEdgeStyle;rounded=0;orthogonalLoop=1;jettySize=auto;html=1;exitX=1;exitY=0.5;exitDx=0;exitDy=0;" edge="1" parent="1" source="HowVhOD-njJGQSaQwk-d-13" target="HowVhOD-njJGQSaQwk-d-16">
          <mxGeometry relative="1" as="geometry">
            <mxPoint x="420" y="200" as="targetPoint" />
          </mxGeometry>
        </mxCell>
        <mxCell id="HowVhOD-njJGQSaQwk-d-13" value="경쟁사 분석&lt;br&gt;(장단점, 시장점유율)&lt;br&gt;10/26" style="rounded=0;whiteSpace=wrap;html=1;" vertex="1" parent="1">
          <mxGeometry x="130" y="340" width="120" height="60" as="geometry" />
        </mxCell>
        <mxCell id="HowVhOD-njJGQSaQwk-d-14" value="자사 분석&lt;br&gt;(특장점, 가능성)&lt;br&gt;10/27" style="rounded=0;whiteSpace=wrap;html=1;" vertex="1" parent="1">
          <mxGeometry x="120" y="560" width="120" height="60" as="geometry" />
        </mxCell>
        <mxCell id="HowVhOD-njJGQSaQwk-d-16" value="" style="shape=table;html=1;whiteSpace=wrap;startSize=0;container=1;collapsible=0;childLayout=tableLayout;" vertex="1" parent="1">
          <mxGeometry x="480" y="380" width="180" height="120" as="geometry" />
        </mxCell>
        <mxCell id="HowVhOD-njJGQSaQwk-d-17" value="" style="shape=partialRectangle;html=1;whiteSpace=wrap;collapsible=0;dropTarget=0;pointerEvents=0;fillColor=none;top=0;left=0;bottom=0;right=0;points=[[0,0.5],[1,0.5]];portConstraint=eastwest;" vertex="1" parent="HowVhOD-njJGQSaQwk-d-16">
          <mxGeometry width="180" height="40" as="geometry" />
        </mxCell>
        <mxCell id="HowVhOD-njJGQSaQwk-d-18" value="현중" style="shape=partialRectangle;html=1;whiteSpace=wrap;connectable=0;fillColor=none;top=0;left=0;bottom=0;right=0;overflow=hidden;pointerEvents=1;" vertex="1" parent="HowVhOD-njJGQSaQwk-d-17">
          <mxGeometry width="60" height="40" as="geometry">
            <mxRectangle width="60" height="40" as="alternateBounds" />
          </mxGeometry>
        </mxCell>
        <mxCell id="HowVhOD-njJGQSaQwk-d-19" value="한화" style="shape=partialRectangle;html=1;whiteSpace=wrap;connectable=0;fillColor=none;top=0;left=0;bottom=0;right=0;overflow=hidden;pointerEvents=1;" vertex="1" parent="HowVhOD-njJGQSaQwk-d-17">
          <mxGeometry x="60" width="60" height="40" as="geometry">
            <mxRectangle width="60" height="40" as="alternateBounds" />
          </mxGeometry>
        </mxCell>
        <mxCell id="HowVhOD-njJGQSaQwk-d-20" value="" style="shape=partialRectangle;html=1;whiteSpace=wrap;connectable=0;fillColor=none;top=0;left=0;bottom=0;right=0;overflow=hidden;pointerEvents=1;" vertex="1" parent="HowVhOD-njJGQSaQwk-d-17">
          <mxGeometry x="120" width="60" height="40" as="geometry">
            <mxRectangle width="60" height="40" as="alternateBounds" />
          </mxGeometry>
        </mxCell>
        <mxCell id="HowVhOD-njJGQSaQwk-d-21" value="" style="shape=partialRectangle;html=1;whiteSpace=wrap;collapsible=0;dropTarget=0;pointerEvents=0;fillColor=none;top=0;left=0;bottom=0;right=0;points=[[0,0.5],[1,0.5]];portConstraint=eastwest;" vertex="1" parent="HowVhOD-njJGQSaQwk-d-16">
          <mxGeometry y="40" width="180" height="40" as="geometry" />
        </mxCell>
        <mxCell id="HowVhOD-njJGQSaQwk-d-22" value="" style="shape=partialRectangle;html=1;whiteSpace=wrap;connectable=0;fillColor=none;top=0;left=0;bottom=0;right=0;overflow=hidden;pointerEvents=1;" vertex="1" parent="HowVhOD-njJGQSaQwk-d-21">
          <mxGeometry width="60" height="40" as="geometry">
            <mxRectangle width="60" height="40" as="alternateBounds" />
          </mxGeometry>
        </mxCell>
        <mxCell id="HowVhOD-njJGQSaQwk-d-23" value="" style="shape=partialRectangle;html=1;whiteSpace=wrap;connectable=0;fillColor=none;top=0;left=0;bottom=0;right=0;overflow=hidden;pointerEvents=1;" vertex="1" parent="HowVhOD-njJGQSaQwk-d-21">
          <mxGeometry x="60" width="60" height="40" as="geometry">
            <mxRectangle width="60" height="40" as="alternateBounds" />
          </mxGeometry>
        </mxCell>
        <mxCell id="HowVhOD-njJGQSaQwk-d-24" value="" style="shape=partialRectangle;html=1;whiteSpace=wrap;connectable=0;fillColor=none;top=0;left=0;bottom=0;right=0;overflow=hidden;pointerEvents=1;" vertex="1" parent="HowVhOD-njJGQSaQwk-d-21">
          <mxGeometry x="120" width="60" height="40" as="geometry">
            <mxRectangle width="60" height="40" as="alternateBounds" />
          </mxGeometry>
        </mxCell>
        <mxCell id="HowVhOD-njJGQSaQwk-d-25" value="" style="shape=partialRectangle;html=1;whiteSpace=wrap;collapsible=0;dropTarget=0;pointerEvents=0;fillColor=none;top=0;left=0;bottom=0;right=0;points=[[0,0.5],[1,0.5]];portConstraint=eastwest;" vertex="1" parent="HowVhOD-njJGQSaQwk-d-16">
          <mxGeometry y="80" width="180" height="40" as="geometry" />
        </mxCell>
        <mxCell id="HowVhOD-njJGQSaQwk-d-26" value="" style="shape=partialRectangle;html=1;whiteSpace=wrap;connectable=0;fillColor=none;top=0;left=0;bottom=0;right=0;overflow=hidden;pointerEvents=1;" vertex="1" parent="HowVhOD-njJGQSaQwk-d-25">
          <mxGeometry width="60" height="40" as="geometry">
            <mxRectangle width="60" height="40" as="alternateBounds" />
          </mxGeometry>
        </mxCell>
        <mxCell id="HowVhOD-njJGQSaQwk-d-27" value="" style="shape=partialRectangle;html=1;whiteSpace=wrap;connectable=0;fillColor=none;top=0;left=0;bottom=0;right=0;overflow=hidden;pointerEvents=1;" vertex="1" parent="HowVhOD-njJGQSaQwk-d-25">
          <mxGeometry x="60" width="60" height="40" as="geometry">
            <mxRectangle width="60" height="40" as="alternateBounds" />
          </mxGeometry>
        </mxCell>
        <mxCell id="HowVhOD-njJGQSaQwk-d-28" value="" style="shape=partialRectangle;html=1;whiteSpace=wrap;connectable=0;fillColor=none;top=0;left=0;bottom=0;right=0;overflow=hidden;pointerEvents=1;" vertex="1" parent="HowVhOD-njJGQSaQwk-d-25">
          <mxGeometry x="120" width="60" height="40" as="geometry">
            <mxRectangle width="60" height="40" as="alternateBounds" />
          </mxGeometry>
        </mxCell>
        <mxCell id="HowVhOD-njJGQSaQwk-d-29" value="제출 Deadline&lt;br&gt;11월 5일" style="rounded=0;whiteSpace=wrap;html=1;" vertex="1" parent="1">
          <mxGeometry x="90" y="1060" width="160" height="70" as="geometry" />
        </mxCell>
        <mxCell id="HowVhOD-njJGQSaQwk-d-31" value="" style="rounded=0;whiteSpace=wrap;html=1;" vertex="1" parent="1">
          <mxGeometry x="340" y="50" width="380" height="260" as="geometry" />
        </mxCell>
        <mxCell id="HowVhOD-njJGQSaQwk-d-32" value="해양플랜트&lt;br&gt;" style="shape=ext;double=1;rounded=1;whiteSpace=wrap;html=1;" vertex="1" parent="1">
          <mxGeometry x="360" y="70" width="120" height="80" as="geometry" />
        </mxCell>
        <mxCell id="HowVhOD-njJGQSaQwk-d-35" style="edgeStyle=orthogonalEdgeStyle;rounded=0;orthogonalLoop=1;jettySize=auto;html=1;exitX=1;exitY=1;exitDx=0;exitDy=0;" edge="1" parent="1" source="HowVhOD-njJGQSaQwk-d-31" target="HowVhOD-njJGQSaQwk-d-31">
          <mxGeometry relative="1" as="geometry" />
        </mxCell>
      </root>
    </mxGraphModel>
  </diagram>
</mxfile>
